<?xml version="1.0" standalone="no"?>
<!DOCTYPE svg PUBLIC "-//W3C//DTD SVG 20010904//EN"
 "http://www.w3.org/TR/2001/REC-SVG-20010904/DTD/svg10.dtd">
<svg version="1.0" xmlns="http://www.w3.org/2000/svg"
 width="500.000000pt" height="500.000000pt" viewBox="0 0 500.000000 500.000000"
 preserveAspectRatio="xMidYMid meet">
<metadata>
Created by potrace 1.11, written by Peter Selinger 2001-2013
</metadata>
<g transform="translate(0.000000,500.000000) scale(0.100000,-0.100000)"
fill="#000000" stroke="none">
<path d="M1072 4978 c-79 -38 -132 -123 -132 -211 0 -91 67 -183 152 -211 59
-19 89 -20 142 -5 l39 11 250 -249 c137 -136 255 -262 263 -280 10 -22 14 -72
14 -158 l0 -125 -87 0 c-117 -1 -163 -8 -193 -29 -29 -21 -38 -76 -16 -104 13
-17 67 -18 972 -20 1068 -2 985 3 1055 -70 69 -71 64 8 66 -1046 2 -891 3
-955 20 -973 25 -28 80 -21 106 14 18 24 21 45 24 150 l2 123 325 3 c321 2
325 2 331 -19 11 -33 65 -89 109 -111 61 -31 150 -29 207 4 53 31 70 49 99
105 41 79 24 186 -40 252 -109 112 -277 95 -360 -36 l-28 -44 -317 0 c-175 0
-319 2 -322 4 -2 3 -5 39 -6 81 -2 61 1 76 13 77 8 1 83 2 165 3 167 2 192 7
206 43 14 37 11 52 -16 78 -24 25 -27 25 -194 25 -195 0 -179 -10 -173 106 l4
60 586 -1 c323 0 598 3 611 8 28 9 50 35 51 59 0 32 -23 67 -49 75 -14 5 -289
8 -611 8 l-585 -1 -5 46 c-3 25 -3 62 -1 83 l3 37 173 0 174 0 21 27 c25 33
21 76 -10 103 -18 15 -42 17 -189 16 l-170 -1 -3 74 c-2 40 0 77 3 82 3 6 62
10 130 10 97 1 138 5 189 22 64 20 71 26 331 285 l267 263 43 -11 c152 -41
302 87 287 244 -20 192 -252 274 -388 137 -64 -65 -86 -151 -59 -231 l12 -32
-249 -250 c-137 -138 -263 -256 -281 -264 -22 -10 -72 -14 -158 -14 l-125 0 0
88 c-1 109 -7 154 -31 215 -51 128 -174 225 -307 241 -20 3 -76 5 -124 5 l-88
1 0 324 c0 319 0 325 21 331 11 4 36 21 55 37 158 139 59 401 -151 401 -89 0
-176 -59 -211 -143 -19 -45 -20 -127 -1 -172 20 -47 70 -103 107 -118 l30 -12
1 -149 c0 -82 0 -178 0 -214 0 -36 0 -114 0 -175 l-1 -110 -82 0 -83 0 1 162
c1 183 -6 212 -55 223 -34 7 -66 -6 -81 -35 -6 -10 -10 -91 -10 -184 l0 -166
-83 0 -84 0 1 592 c1 476 -2 597 -12 619 -26 53 -111 47 -129 -10 -5 -14 -8
-290 -8 -613 l1 -588 -83 0 -83 0 0 170 c0 170 0 171 -26 197 -20 20 -31 24
-57 19 -60 -12 -62 -19 -62 -211 l0 -175 -82 0 -83 0 -1 108 c-1 153 -4 174
-33 239 -23 49 -68 99 -283 315 -254 254 -256 256 -245 286 19 54 8 136 -24
189 -61 98 -192 139 -292 91z m155 -150 c51 -48 12 -138 -60 -138 -73 0 -106
82 -54 138 27 29 82 30 114 0z m1961 -163 c26 -31 28 -57 5 -95 -28 -48 -81
-53 -123 -11 -23 22 -28 35 -25 61 10 77 92 103 143 45z m1624 -764 c45 -23
53 -88 15 -128 -26 -29 -75 -30 -111 -2 -50 39 -26 128 39 141 24 5 23 5 57
-11z m-138 -1971 c31 -30 27 -87 -8 -116 -32 -28 -58 -30 -96 -7 -48 28 -53
81 -11 123 23 23 35 28 62 25 18 -3 42 -14 53 -25z"/>
<path d="M1281 3484 c-12 -15 -22 -38 -23 -53 0 -14 -2 -30 -3 -36 -2 -5 -3
-52 -4 -102 l-1 -93 -324 0 -324 0 -12 30 c-19 47 -94 107 -146 118 -214 46
-365 -177 -242 -355 55 -81 180 -117 270 -80 47 20 103 70 118 107 l12 30 323
0 323 0 4 -80 c2 -66 0 -80 -12 -81 -8 0 -86 -1 -173 -2 -147 -2 -160 -4 -183
-24 -31 -28 -31 -67 1 -98 24 -25 27 -25 195 -25 l170 0 0 -83 0 -83 -592 1
c-642 1 -641 1 -655 -53 -9 -36 15 -81 48 -90 16 -4 292 -7 614 -6 l585 0 1
-23 c1 -13 1 -34 1 -48 0 -14 0 -41 -1 -60 l-1 -35 -166 0 c-93 0 -174 -4
-184 -10 -29 -15 -42 -47 -35 -81 11 -49 40 -56 218 -55 88 1 161 -3 164 -8 7
-10 6 -146 0 -152 -3 -3 -60 -5 -127 -5 -123 0 -196 -14 -249 -47 -14 -8 -140
-128 -279 -266 -194 -193 -258 -250 -275 -248 -106 12 -135 10 -185 -13 -89
-41 -140 -134 -128 -234 21 -178 232 -263 371 -149 67 56 101 165 75 243 l-12
37 248 250 c137 138 263 256 281 264 35 15 283 21 283 7 0 -5 2 -60 4 -123 2
-87 8 -128 24 -170 39 -100 130 -188 235 -227 39 -14 123 -22 240 -23 l47 0 0
-324 c0 -319 0 -325 -21 -331 -33 -11 -89 -65 -111 -109 -31 -60 -28 -151 6
-211 94 -160 319 -156 402 8 29 57 34 134 11 189 -20 47 -70 103 -107 118 -24
10 -30 19 -31 44 0 35 0 445 0 549 l1 67 83 0 82 0 -1 -162 c-2 -183 6 -212
55 -223 34 -7 66 6 81 35 6 10 10 90 10 184 0 188 -9 173 99 168 l67 -3 -1
-592 c-1 -361 3 -600 9 -612 30 -62 112 -59 133 6 5 13 8 288 8 612 l-1 587
83 0 83 0 0 -170 c0 -168 0 -171 25 -195 29 -30 62 -31 95 -4 24 21 25 24 27
182 1 89 2 169 2 177 1 12 15 15 79 12 42 -2 78 -5 79 -6 2 -2 4 -58 4 -126 2
-126 8 -168 36 -230 9 -20 127 -147 275 -296 l259 -261 -12 -46 c-26 -104 24
-211 120 -259 93 -47 188 -32 261 41 90 91 94 218 9 315 -58 66 -169 93 -252
60 -15 -5 -68 42 -269 242 -144 144 -255 263 -264 283 -10 23 -14 72 -14 157
l0 124 43 0 c147 1 210 8 235 27 35 26 42 81 14 106 -18 16 -85 18 -973 20
-891 2 -956 3 -986 20 -43 23 -87 67 -110 108 -17 32 -18 83 -20 988 -2 878
-4 955 -19 972 -26 29 -78 25 -103 -7z m-858 -285 c52 -24 60 -87 17 -131 -25
-25 -35 -29 -63 -23 -73 16 -98 95 -43 141 30 26 53 30 89 13z m-139 -1970
c20 -16 26 -29 26 -57 -1 -45 -18 -70 -58 -81 -81 -24 -139 73 -81 135 28 30
77 31 113 3z m1641 -782 c35 -30 39 -88 7 -119 -31 -32 -89 -28 -119 7 -66 77
35 178 112 112z m1962 -159 c25 -27 30 -53 18 -88 -11 -35 -34 -49 -77 -50
-70 0 -104 85 -53 135 32 33 84 34 112 3z"/>
<path d="M2220 3350 c-135 -27 -231 -137 -231 -264 l0 -54 -64 -31 c-120 -59
-198 -174 -200 -296 -2 -59 19 -139 46 -177 25 -34 25 -34 -13 -113 -69 -148
-35 -303 92 -425 35 -33 49 -55 53 -83 37 -243 377 -349 565 -177 l31 28 28
-25 c84 -73 217 -106 322 -78 131 35 229 133 248 249 3 20 9 36 13 36 4 0 30
20 57 44 105 95 139 257 79 376 -15 30 -36 64 -47 76 -20 21 -20 21 16 74 94
140 78 299 -42 422 -26 26 -71 58 -104 73 l-58 25 0 54 c0 231 -280 352 -479
208 l-33 -24 -33 26 c-66 50 -164 72 -246 56z m123 -154 c46 -19 76 -56 82
-101 8 -50 35 -78 74 -78 42 0 68 26 75 77 8 50 45 91 97 106 50 15 74 12 122
-10 43 -20 75 -65 72 -100 -1 -8 -3 -22 -3 -31 -1 -11 -15 -19 -40 -23 -93
-14 -142 -56 -128 -110 3 -14 18 -33 32 -42 23 -16 30 -16 89 -2 74 19 131 15
189 -11 140 -61 169 -218 57 -312 -73 -62 -81 -71 -81 -98 0 -28 30 -62 81
-95 14 -9 36 -37 48 -62 31 -61 26 -128 -14 -179 l-27 -36 -23 33 c-39 57
-148 127 -198 128 -28 0 -67 -45 -67 -78 0 -33 17 -51 75 -80 69 -34 104 -89
98 -150 -9 -95 -106 -162 -217 -148 -67 9 -119 44 -144 98 -18 40 -20 62 -18
308 1 254 2 266 22 295 42 59 55 65 174 90 65 13 88 78 44 122 -23 23 -31 25
-83 20 -31 -2 -79 -14 -105 -26 -27 -11 -49 -21 -50 -21 -1 0 -3 25 -4 55 -1
31 -6 65 -12 75 -21 40 -100 38 -121 -3 -9 -15 -13 -88 -13 -229 0 -201 -4
-227 -30 -200 -17 17 -72 29 -97 20 -27 -9 -49 -44 -49 -77 0 -22 33 -51 82
-73 20 -9 49 -33 64 -54 27 -35 29 -42 30 -153 0 -93 -3 -123 -17 -153 -55
-111 -228 -130 -322 -36 -19 19 -44 84 -41 106 1 6 2 18 3 25 0 8 14 34 31 58
35 52 38 91 8 119 -34 31 -75 26 -112 -15 -18 -19 -35 -35 -39 -35 -4 0 -19
19 -33 42 -37 59 -44 142 -15 201 34 70 104 126 178 142 60 13 84 85 41 125
-29 27 -65 25 -140 -5 -34 -14 -62 -25 -64 -25 -9 0 -34 75 -34 104 0 110 87
188 225 202 76 8 98 58 59 132 -29 54 -27 92 9 130 45 49 118 65 180 38z"/>
</g>
</svg>
