<?xml version="1.0" standalone="no"?>
<!DOCTYPE svg PUBLIC "-//W3C//DTD SVG 20010904//EN"
 "http://www.w3.org/TR/2001/REC-SVG-20010904/DTD/svg10.dtd">
<svg version="1.0" xmlns="http://www.w3.org/2000/svg"
 width="512.000000pt" height="512.000000pt" viewBox="0 0 512.000000 512.000000"
 preserveAspectRatio="xMidYMid meet">
<metadata>
Created by potrace 1.14, written by Peter Selinger 2001-2017
</metadata>
<g transform="translate(0.000000,512.000000) scale(0.100000,-0.100000)"
fill="#000000" stroke="none">
<path d="M0 2560 l0 -2560 2560 0 2560 0 0 2560 0 2560 -2560 0 -2560 0 0
-2560z m1676 2311 c35 -33 154 -82 183 -74 10 3 22 0 25 -6 12 -19 41 -12 87
19 49 33 80 38 99 15 7 -8 25 -15 40 -15 15 0 33 7 40 15 21 25 66 18 106 -17
33 -29 42 -32 122 -36 139 -6 143 -6 188 19 l43 23 23 -21 c16 -15 31 -20 51
-16 15 3 42 -1 60 -8 17 -8 40 -12 50 -11 18 3 113 -29 147 -50 16 -10 25 -9
50 6 35 20 41 18 56 -27 9 -28 17 -33 55 -39 24 -3 65 -13 91 -22 25 -9 53
-13 62 -10 10 4 32 -4 54 -18 129 -85 132 -86 176 -67 22 10 31 8 66 -14 22
-15 47 -38 56 -52 11 -17 25 -25 44 -25 40 0 97 -27 114 -53 8 -12 20 -47 26
-77 l12 -55 39 3 c36 4 39 2 39 -22 0 -22 -4 -26 -29 -26 -16 0 -31 4 -33 10
-1 5 -3 -63 -4 -153 -1 -197 -11 -238 -67 -289 -23 -21 -49 -38 -58 -38 -9 0
-28 -10 -43 -23 l-27 -23 6 -165 c3 -90 10 -243 15 -339 18 -336 20 -426 10
-580 -13 -204 -40 -356 -74 -414 -14 -24 -26 -51 -26 -58 0 -7 -18 -49 -40
-93 -22 -44 -40 -86 -40 -93 0 -7 -5 -10 -10 -7 -6 4 -8 16 -4 27 4 15 2 19
-7 16 -8 -3 -14 -17 -14 -32 -1 -17 -10 -35 -25 -47 -28 -21 -40 -24 -40 -9 0
6 6 10 13 10 8 0 18 16 24 35 15 46 -2 45 -29 -1 -19 -32 -23 -35 -29 -18 -8
20 -9 20 -14 -10 -5 -24 -26 -38 -41 -25 -8 7 -13 0 -17 -21 -4 -18 -13 -30
-22 -30 -9 0 -18 -12 -22 -31 -4 -21 -9 -27 -16 -20 -15 15 -50 14 -65 -1 -9
-9 -12 -7 -12 9 0 25 -16 39 -23 21 -3 -9 -9 -7 -19 6 -14 18 -15 18 -23 -10
-5 -16 -7 -37 -6 -46 3 -20 -15 -24 -22 -5 -3 7 -6 4 -6 -7 -1 -15 -4 -16 -15
-7 -18 15 -32 -4 -17 -23 13 -15 5 -26 -21 -26 -18 0 -22 -9 -18 -44 1 -12 -2
-16 -11 -10 -23 14 -57 13 -63 -1 -3 -8 -1 -17 4 -20 18 -11 10 -25 -15 -25
-14 0 -25 -4 -25 -10 0 -5 -9 -10 -20 -10 -11 0 -20 5 -20 10 0 6 -6 10 -14
10 -8 0 -13 -7 -12 -17 1 -11 -13 -19 -49 -28 -27 -7 -63 -17 -79 -24 -16 -6
-31 -9 -34 -6 -3 2 -11 0 -19 -6 -10 -9 -13 -8 -13 1 0 7 -7 10 -15 6 -8 -3
-25 -2 -37 3 -17 6 -27 4 -36 -8 -10 -12 -15 -13 -18 -3 -3 6 -10 12 -15 12
-6 0 -7 -4 -4 -10 11 -17 -3 -11 -24 11 -12 13 -21 17 -26 10 -11 -18 -25 -12
-25 10 0 18 -2 19 -15 9 -12 -10 -25 -10 -59 -1 -25 6 -54 11 -66 11 -12 0
-29 7 -37 16 -9 8 -25 13 -35 11 -11 -3 -22 1 -25 9 -3 8 -11 14 -18 14 -7 0
-15 9 -18 20 -6 25 -27 26 -27 3 -1 -12 -9 -4 -23 19 -12 21 -27 38 -34 38 -6
0 -13 14 -15 32 -3 33 -28 53 -28 22 0 -9 -3 -14 -7 -11 -3 4 -5 35 -4 70 1
34 -2 73 -8 87 -7 17 -10 20 -10 8 -1 -10 -4 -18 -8 -18 -7 0 -9 52 -4 128 0
12 6 22 12 22 6 0 9 -9 6 -20 -3 -11 -1 -20 4 -20 5 0 11 11 15 24 3 14 12 27
20 30 8 3 14 12 14 19 0 8 9 22 20 32 20 18 23 18 98 0 42 -10 109 -28 147
-40 84 -27 272 -54 335 -49 157 14 344 55 370 82 18 17 5 16 -150 -18 -197
-42 -391 -36 -545 17 -42 14 -105 26 -157 30 -49 3 -88 9 -88 13 0 25 216 58
252 39 10 -5 30 -9 45 -9 15 0 84 -4 153 -8 69 -4 144 -5 168 -1 23 3 45 2 48
-3 3 -5 12 -4 19 2 8 6 22 10 32 8 10 -1 23 1 30 5 6 4 14 3 18 -3 3 -5 39
-10 79 -10 53 0 77 -4 86 -15 7 -8 21 -15 31 -15 22 0 25 -21 7 -50 -16 -26
-2 -39 17 -14 8 11 13 30 10 44 -5 24 -5 24 10 6 8 -11 15 -30 15 -42 0 -13 5
-26 10 -29 6 -3 10 -13 10 -21 0 -8 -4 -12 -10 -9 -12 7 -12 -22 0 -50 7 -17
9 -16 10 10 2 19 4 23 7 12 13 -49 50 24 60 118 4 43 2 54 -18 76 -13 14 -39
42 -57 62 -18 21 -41 37 -52 37 -11 0 -28 8 -39 19 -22 22 -71 36 -71 20 0 -8
-4 -8 -12 -2 -7 5 -25 8 -40 7 -37 -4 -35 6 6 33 22 14 40 38 52 68 17 45 17
48 -2 92 -10 26 -25 48 -32 51 -11 3 -10 -3 2 -26 23 -45 20 -102 -7 -133 -29
-35 -137 -106 -206 -136 -70 -31 -92 -27 -190 36 -42 26 -94 54 -115 62 -63
23 -96 60 -96 109 0 23 5 51 11 62 9 16 8 19 -3 16 -20 -7 -38 -49 -38 -92 0
-33 7 -45 40 -78 23 -21 48 -38 57 -38 9 0 14 -2 12 -5 -3 -2 -40 -1 -83 4
-80 9 -125 2 -157 -25 -8 -8 -19 -14 -24 -14 -5 0 0 6 11 14 37 28 5 27 -53 0
-57 -28 -153 -116 -153 -142 0 -7 -5 -21 -12 -31 -9 -15 -9 -50 0 -153 15
-170 15 -191 0 -185 -7 2 -18 -3 -25 -12 -11 -14 -13 -14 -26 3 -11 16 -16 17
-34 6 -28 -18 -57 -6 -50 22 4 12 -3 38 -16 62 -15 29 -22 36 -25 24 -2 -10 6
-31 18 -48 22 -31 13 -41 -14 -15 -20 21 -26 19 -26 -7 -1 -21 -2 -21 -11 -5
-6 10 -8 25 -5 33 3 9 -1 14 -14 14 -12 0 -20 -8 -22 -22 -2 -16 -6 -10 -15
22 -10 41 -10 43 4 25 14 -19 15 -17 8 20 -4 22 -12 49 -18 60 -10 18 -12 15
-18 -25 -3 -25 -2 -58 2 -75 5 -16 9 -37 9 -45 -1 -27 -17 11 -25 58 -4 25
-12 42 -20 42 -8 0 -17 10 -21 23 -4 12 -17 36 -30 53 -13 17 -24 37 -24 45 1
10 5 8 15 -5 9 -13 15 -15 15 -7 0 8 -7 19 -16 26 -15 10 -18 28 -24 130 0 6
-4 4 -9 -4 -12 -19 -24 4 -17 34 3 13 0 43 -8 67 -72 210 -70 739 5 1358 5 47
14 134 19 195 5 60 12 125 15 145 5 33 3 38 -22 50 -15 8 -32 14 -38 15 -5 0
-16 4 -23 9 -7 4 -19 5 -27 2 -8 -3 -19 3 -25 14 -5 10 -20 20 -32 22 -33 5
-41 61 -28 202 17 188 42 289 89 350 21 28 50 69 63 91 35 56 47 64 98 61 38
-2 49 2 70 26 26 29 40 34 56 19z m2044 -337 c0 -8 -4 -12 -10 -9 -5 3 -10 10
-10 16 0 5 5 9 10 9 6 0 10 -7 10 -16z m623 -231 c-7 -2 -19 -2 -25 0 -7 3 -2
5 12 5 14 0 19 -2 13 -5z m0 -30 c-7 -2 -19 -2 -25 0 -7 3 -2 5 12 5 14 0 19
-2 13 -5z m37 -31 c0 -34 4 -39 45 -61 63 -33 132 -110 141 -156 3 -20 4 -70
2 -110 -8 -127 -78 -236 -184 -290 -51 -26 -70 -30 -139 -30 -96 0 -152 22
-215 85 -72 72 -105 188 -82 288 8 35 7 44 -4 49 -19 7 -19 83 0 83 8 0 17 15
21 37 l7 37 20 -32 20 -32 47 33 c60 44 111 63 192 71 59 7 66 9 62 27 -7 27
22 25 42 -3 17 -23 17 -23 13 10 -3 17 -1 32 4 32 4 0 8 -17 8 -38z m93 31
c-13 -2 -35 -2 -50 0 -16 2 -5 4 22 4 28 0 40 -2 28 -4z m-532 -44 c8 -17 6
-19 -21 -19 -25 0 -30 4 -30 24 0 19 4 23 20 19 11 -3 25 -14 31 -24z m522
-26 c-13 -2 -33 -2 -45 0 -13 2 -3 4 22 4 25 0 35 -2 23 -4z m-543 -144 l0
-39 -45 0 -45 0 0 38 c0 21 2 41 4 43 3 3 23 3 45 1 40 -4 41 -5 41 -43z
m-180 -674 c0 -12 -8 -29 -17 -38 -17 -15 -18 -12 -14 41 3 51 4 55 17 37 8
-10 14 -29 14 -40z m-2438 2 c10 -12 20 -38 23 -57 7 -36 29 -136 40 -180 4
-14 -16 13 -44 60 -28 47 -67 99 -86 116 -39 35 -43 49 -18 76 21 24 60 17 85
-15z m28 13 c0 -5 -2 -10 -4 -10 -3 0 -8 5 -11 10 -3 6 -1 10 4 10 6 0 11 -4
11 -10z m-102 -105 l21 -24 -19 -43 c-22 -49 -26 -122 -8 -179 17 -59 26 -47
20 26 -5 62 12 155 28 155 9 0 50 -93 50 -112 0 -8 9 -31 20 -53 22 -43 14
-63 -18 -46 -17 9 -23 8 -30 -5 -11 -20 -4 -56 10 -48 7 4 8 -8 3 -35 -5 -32
-2 -48 14 -75 12 -18 21 -41 21 -50 0 -20 -29 -21 -36 -1 -4 8 -10 15 -15 15
-19 0 -8 -24 27 -57 l36 -34 -17 -35 c-14 -30 -15 -41 -5 -62 10 -22 9 -28 -6
-39 -9 -7 -21 -10 -25 -7 -16 9 -50 140 -74 283 -27 154 -45 451 -28 451 5 0
19 -11 31 -25z m2507 -27 c-2 -18 -7 -55 -10 -83 -10 -95 -27 -177 -34 -166
-4 6 -2 44 5 84 7 39 13 93 14 119 0 25 3 53 6 62 11 28 23 17 19 -16z m-2385
-278 c0 -5 -5 -10 -11 -10 -5 0 -7 5 -4 10 3 6 8 10 11 10 2 0 4 -4 4 -10z
m2337 -67 c-3 -10 -5 -4 -5 12 0 17 2 24 5 18 2 -7 2 -21 0 -30z m-2320 -35
c-2 -13 -4 -5 -4 17 -1 22 1 32 4 23 2 -10 2 -28 0 -40z m163 -1060 c13 -35
40 -97 61 -140 22 -42 39 -81 39 -86 0 -31 97 -293 122 -329 33 -48 25 -57
-14 -15 -65 69 -144 205 -182 310 -23 64 -66 271 -66 317 0 30 17 6 40 -57z
m307 -50 c-3 -8 -6 -5 -6 6 -1 11 2 17 5 13 3 -3 4 -12 1 -19z m1293 -8 c0 -5
-5 -10 -11 -10 -5 0 -7 5 -4 10 3 6 8 10 11 10 2 0 4 -4 4 -10z m-1380 -388
c0 -3 -9 3 -20 13 -11 10 -20 22 -20 27 0 4 -11 31 -25 59 -13 29 -22 56 -18
61 4 8 83 -142 83 -160z m1512 -19 l3 -130 -34 -49 c-95 -136 -168 -178 -391
-225 -119 -25 -317 -27 -440 -4 -104 19 -287 78 -349 112 -71 40 -175 109
-196 133 -24 26 -8 48 23 31 11 -6 27 -8 36 -5 8 3 19 -3 25 -15 13 -24 115
-82 184 -105 26 -9 103 -27 170 -40 102 -20 148 -24 277 -22 150 3 157 4 215
32 100 50 145 83 224 163 94 95 231 258 231 274 0 7 5 5 10 -4 5 -9 11 -75 12
-146z m-1467 6 c11 -17 -1 -21 -15 -4 -8 9 -8 15 -2 15 6 0 14 -5 17 -11z m38
-75 c32 -38 17 -47 -20 -12 -22 21 -31 49 -15 47 4 0 20 -16 35 -35z"/>
<path d="M1805 3474 c-11 -3 -29 -7 -40 -9 -33 -7 -125 -102 -125 -130 0 -3
46 -3 103 0 105 7 466 -18 512 -35 22 -8 94 -5 103 5 3 3 0 10 -6 18 -6 7 -9
22 -6 33 9 33 -80 68 -249 99 -84 15 -260 27 -292 19z"/>
<path d="M3115 3416 c-111 -16 -165 -31 -209 -57 -34 -20 -52 -54 -35 -65 5
-3 103 -1 217 5 302 16 402 18 402 9 0 -4 7 -8 15 -8 36 0 -41 89 -95 112 -40
16 -197 18 -295 4z"/>
<path d="M1960 3241 c-25 -4 -68 -20 -97 -37 -70 -39 -102 -92 -39 -63 19 9
36 9 63 1 72 -20 143 -24 251 -12 94 10 115 9 146 -4 50 -21 43 -2 -15 43 -37
29 -40 33 -17 28 14 -4 34 -10 44 -14 12 -4 15 -3 10 5 -4 7 -13 12 -19 12 -7
0 -34 12 -62 25 -42 21 -63 25 -135 24 -47 -1 -105 -5 -130 -8z m140 -61 c0
-21 -24 -28 -35 -10 -8 14 3 30 21 30 8 0 14 -9 14 -20z m99 1 l34 -18 -37 -7
c-42 -8 -56 -2 -56 25 0 23 15 24 59 0z m-259 -12 c0 -17 -4 -20 -22 -15 -13
3 -30 6 -38 6 -11 1 -10 4 4 15 29 22 56 19 56 -6z"/>
<path d="M2950 3221 c-70 -23 -110 -42 -110 -52 0 -5 19 -2 42 7 52 18 61 11
14 -11 -41 -20 -60 -40 -51 -55 4 -7 13 -7 27 1 14 8 49 9 107 4 118 -11 235
-6 282 10 30 11 45 12 64 3 27 -12 41 -6 30 11 -3 6 -24 21 -47 32 -22 11 -38
22 -36 25 8 8 73 -19 95 -39 26 -23 43 -16 23 8 -19 23 -66 46 -125 61 -74 20
-248 17 -315 -5z m60 -67 c0 -26 -8 -28 -59 -18 -40 8 -39 16 7 35 44 19 52
16 52 -17z m140 21 c0 -8 -7 -15 -15 -15 -16 0 -20 12 -8 23 11 12 23 8 23 -8z
m106 -9 c18 -14 18 -15 -9 -25 -41 -16 -47 -14 -47 14 0 29 24 34 56 11z"/>
<path d="M1530 2140 c0 -5 5 -10 11 -10 5 0 7 5 4 10 -3 6 -8 10 -11 10 -2 0
-4 -4 -4 -10z"/>
<path d="M1563 2085 c-3 -9 -3 -18 -1 -21 3 -3 8 4 11 16 6 23 -1 27 -10 5z"/>
<path d="M1600 2060 c0 -11 4 -20 9 -20 5 0 7 9 4 20 -3 11 -7 20 -9 20 -2 0
-4 -9 -4 -20z"/>
<path d="M1641 2034 c0 -11 3 -14 6 -6 3 7 2 16 -1 19 -3 4 -6 -2 -5 -13z"/>
<path d="M1580 1995 c0 -8 2 -15 4 -15 2 0 6 7 10 15 3 8 1 15 -4 15 -6 0 -10
-7 -10 -15z"/>
<path d="M1970 1969 c0 -11 5 -17 10 -14 6 3 10 13 10 21 0 8 -4 14 -10 14 -5
0 -10 -9 -10 -21z"/>
<path d="M2310 1850 c0 -6 4 -18 9 -28 5 -9 14 -29 20 -44 6 -17 18 -28 29
-28 10 0 27 -7 38 -15 25 -19 34 -19 34 1 0 9 6 14 13 11 6 -2 11 -14 9 -27
-3 -15 0 -20 8 -15 6 4 17 -1 25 -11 7 -11 17 -15 22 -10 4 5 2 11 -4 13 -18
6 -16 23 2 23 7 0 18 7 23 16 14 25 25 -1 12 -27 -14 -25 -3 -41 11 -16 15 26
62 67 77 67 7 0 10 -4 7 -10 -3 -5 0 -10 8 -10 16 0 34 41 35 78 1 19 -2 21
-13 12 -12 -10 -16 -9 -20 3 -5 13 -12 12 -45 -4 -48 -23 -47 -23 -53 1 -6 24
-27 27 -27 4 0 -12 -3 -14 -13 -6 -7 6 -39 13 -71 16 -32 2 -61 7 -64 10 -3 3
-13 -1 -22 -9 -16 -14 -18 -14 -23 0 -7 17 -27 21 -27 5z m50 -50 c0 -11 -4
-20 -9 -20 -5 0 -7 9 -4 20 3 11 7 20 9 20 2 0 4 -9 4 -20z"/>
<path d="M2725 1837 c-4 -10 -5 -21 -1 -24 10 -10 18 4 13 24 -4 17 -4 17 -12
0z"/>
<path d="M1286 3083 c-9 -9 -7 -33 3 -33 12 0 22 28 12 34 -5 3 -11 3 -15 -1z"/>
<path d="M1265 2880 c4 -6 11 -8 16 -5 14 9 11 15 -7 15 -8 0 -12 -5 -9 -10z"/>
</g>
</svg>
